{
	"patcher" : 	{
		"fileversion" : 1,
		"appversion" : 		{
			"major" : 8,
			"minor" : 5,
			"revision" : 0,
			"architecture" : "x64",
			"modernui" : 1
		}
,
		"classnamespace" : "box",
		"rect" : [ 1697.0, 163.0, 634.0, 758.0 ],
		"bglocked" : 0,
		"openinpresentation" : 0,
		"default_fontsize" : 12.0,
		"default_fontface" : 0,
		"default_fontname" : "Arial",
		"gridonopen" : 1,
		"gridsize" : [ 15.0, 15.0 ],
		"gridsnaponopen" : 1,
		"objectsnaponopen" : 1,
		"statusbarvisible" : 2,
		"toolbarvisible" : 1,
		"lefttoolbarpinned" : 0,
		"toptoolbarpinned" : 0,
		"righttoolbarpinned" : 0,
		"bottomtoolbarpinned" : 0,
		"toolbars_unpinned_last_save" : 0,
		"tallnewobj" : 0,
		"boxanimatetime" : 200,
		"enablehscroll" : 1,
		"enablevscroll" : 1,
		"devicewidth" : 0.0,
		"description" : "",
		"digest" : "",
		"tags" : "",
		"style" : "",
		"subpatcher_template" : "",
		"assistshowspatchername" : 0,
		"boxes" : [ 			{
				"box" : 				{
					"id" : "obj-4",
					"maxclass" : "message",
					"numinlets" : 2,
					"numoutlets" : 1,
					"outlettype" : [ "" ],
					"patching_rect" : [ 299.0, 534.0, 68.0, 22.0 ],
					"text" : "exportcode"
				}

			}
, 			{
				"box" : 				{
					"attr" : "width",
					"id" : "obj-19",
					"maxclass" : "attrui",
					"numinlets" : 1,
					"numoutlets" : 1,
					"outlettype" : [ "" ],
					"parameter_enable" : 0,
					"patching_rect" : [ 299.0, 385.0, 150.0, 22.0 ]
				}

			}
, 			{
				"box" : 				{
					"attr" : "gain",
					"id" : "obj-16",
					"maxclass" : "attrui",
					"numinlets" : 1,
					"numoutlets" : 1,
					"outlettype" : [ "" ],
					"parameter_enable" : 0,
					"patching_rect" : [ 299.0, 473.0, 150.0, 22.0 ]
				}

			}
, 			{
				"box" : 				{
					"attr" : "mix",
					"id" : "obj-15",
					"maxclass" : "attrui",
					"numinlets" : 1,
					"numoutlets" : 1,
					"outlettype" : [ "" ],
					"parameter_enable" : 0,
					"patching_rect" : [ 299.0, 444.0, 150.0, 22.0 ]
				}

			}
, 			{
				"box" : 				{
					"attr" : "pitch",
					"id" : "obj-14",
					"maxclass" : "attrui",
					"numinlets" : 1,
					"numoutlets" : 1,
					"outlettype" : [ "" ],
					"parameter_enable" : 0,
					"patching_rect" : [ 299.0, 414.0, 150.0, 22.0 ]
				}

			}
, 			{
				"box" : 				{
					"attr" : "grainPos",
					"id" : "obj-12",
					"maxclass" : "attrui",
					"numinlets" : 1,
					"numoutlets" : 1,
					"outlettype" : [ "" ],
					"parameter_enable" : 0,
					"patching_rect" : [ 299.0, 325.0, 150.0, 22.0 ]
				}

			}
, 			{
				"box" : 				{
					"attr" : "interval",
					"id" : "obj-10",
					"maxclass" : "attrui",
					"numinlets" : 1,
					"numoutlets" : 1,
					"outlettype" : [ "" ],
					"parameter_enable" : 0,
					"patching_rect" : [ 299.0, 355.0, 150.0, 22.0 ]
				}

			}
, 			{
				"box" : 				{
					"attr" : "grainSize",
					"id" : "obj-7",
					"maxclass" : "attrui",
					"numinlets" : 1,
					"numoutlets" : 1,
					"outlettype" : [ "" ],
					"parameter_enable" : 0,
					"patching_rect" : [ 299.0, 295.0, 150.0, 22.0 ]
				}

			}
, 			{
				"box" : 				{
					"id" : "obj-5",
					"maxclass" : "ezdac~",
					"numinlets" : 2,
					"numoutlets" : 0,
					"patching_rect" : [ 132.0, 688.0, 45.0, 45.0 ]
				}

			}
, 			{
				"box" : 				{
					"id" : "obj-3",
					"lastchannelcount" : 0,
					"maxclass" : "live.gain~",
					"numinlets" : 2,
					"numoutlets" : 5,
					"outlettype" : [ "signal", "signal", "", "float", "list" ],
					"parameter_enable" : 1,
					"patching_rect" : [ 132.0, 508.0, 48.0, 138.0 ],
					"saved_attribute_attributes" : 					{
						"valueof" : 						{
							"parameter_longname" : "live.gain~",
							"parameter_mmax" : 6.0,
							"parameter_mmin" : -70.0,
							"parameter_shortname" : "live.gain~",
							"parameter_type" : 0,
							"parameter_unitstyle" : 4
						}

					}
,
					"varname" : "live.gain~"
				}

			}
, 			{
				"box" : 				{
					"basictuning" : 440,
					"clipheight" : 33.285714285714285,
					"data" : 					{
						"clips" : [ 							{
								"absolutepath" : "vibes-a1.aif",
								"filename" : "vibes-a1.aif",
								"filekind" : "audiofile",
								"id" : "u661000887",
								"loop" : 1,
								"content_state" : 								{
									"slurtime" : [ 0 ],
									"timestretch" : [ 0 ],
									"formantcorrection" : [ 0 ],
									"formant" : [ 1 ],
									"originallengthms" : [ 0 ],
									"pitchshift" : [ 1 ],
									"mode" : [ "basic" ],
									"originallength" : [ 0, "ticks" ],
									"quality" : [ "basic" ],
									"speed" : [ 1 ],
									"originaltempo" : [ 120 ],
									"basictuning" : [ 440 ],
									"pitchcorrection" : [ 0 ],
									"followglobaltempo" : [ 0 ],
									"play" : [ 0 ],
									"pitchshiftcent" : [ 0 ],
									"loop" : [ 1 ]
								}

							}
, 							{
								"absolutepath" : "sho0630.aif",
								"filename" : "sho0630.aif",
								"filekind" : "audiofile",
								"id" : "u128000890",
								"loop" : 1,
								"content_state" : 								{
									"slurtime" : [ 0 ],
									"timestretch" : [ 0 ],
									"formantcorrection" : [ 0 ],
									"formant" : [ 1 ],
									"originallengthms" : [ 0 ],
									"pitchshift" : [ 1 ],
									"mode" : [ "basic" ],
									"originallength" : [ 0, "ticks" ],
									"quality" : [ "basic" ],
									"speed" : [ 1 ],
									"originaltempo" : [ 120 ],
									"basictuning" : [ 440 ],
									"pitchcorrection" : [ 0 ],
									"followglobaltempo" : [ 0 ],
									"play" : [ 0 ],
									"pitchshiftcent" : [ 0 ]
								}

							}
, 							{
								"absolutepath" : "drumLoop.aif",
								"filename" : "drumLoop.aif",
								"filekind" : "audiofile",
								"id" : "u228000893",
								"loop" : 1,
								"content_state" : 								{
									"slurtime" : [ 0 ],
									"timestretch" : [ 0 ],
									"formantcorrection" : [ 0 ],
									"formant" : [ 1 ],
									"originallengthms" : [ 0 ],
									"pitchshift" : [ 1 ],
									"mode" : [ "basic" ],
									"originallength" : [ 0, "ticks" ],
									"quality" : [ "basic" ],
									"speed" : [ 1 ],
									"originaltempo" : [ 120 ],
									"basictuning" : [ 440 ],
									"pitchcorrection" : [ 0 ],
									"followglobaltempo" : [ 0 ],
									"play" : [ 0 ],
									"pitchshiftcent" : [ 0 ]
								}

							}
, 							{
								"absolutepath" : "cherokee.aif",
								"filename" : "cherokee.aif",
								"filekind" : "audiofile",
								"id" : "u506000896",
								"loop" : 0,
								"content_state" : 								{
									"slurtime" : [ 0 ],
									"timestretch" : [ 0 ],
									"formantcorrection" : [ 0 ],
									"formant" : [ 1 ],
									"originallengthms" : [ 0 ],
									"pitchshift" : [ 1 ],
									"mode" : [ "basic" ],
									"originallength" : [ 0, "ticks" ],
									"quality" : [ "basic" ],
									"speed" : [ 1 ],
									"originaltempo" : [ 120 ],
									"basictuning" : [ 440 ],
									"pitchcorrection" : [ 0 ],
									"followglobaltempo" : [ 0 ],
									"play" : [ 0 ],
									"pitchshiftcent" : [ 0 ]
								}

							}
, 							{
								"absolutepath" : "cello-f2.aif",
								"filename" : "cello-f2.aif",
								"filekind" : "audiofile",
								"id" : "u255000899",
								"loop" : 0,
								"content_state" : 								{
									"slurtime" : [ 0 ],
									"timestretch" : [ 0 ],
									"formantcorrection" : [ 0 ],
									"formant" : [ 1 ],
									"originallengthms" : [ 0 ],
									"pitchshift" : [ 1 ],
									"mode" : [ "basic" ],
									"originallength" : [ 0, "ticks" ],
									"quality" : [ "basic" ],
									"speed" : [ 1 ],
									"originaltempo" : [ 120 ],
									"basictuning" : [ 440 ],
									"pitchcorrection" : [ 0 ],
									"followglobaltempo" : [ 0 ],
									"play" : [ 0 ],
									"pitchshiftcent" : [ 0 ]
								}

							}
, 							{
								"absolutepath" : "jongly.aif",
								"filename" : "jongly.aif",
								"filekind" : "audiofile",
								"id" : "u372000902",
								"selection" : [ 0.030405, 0.716216 ],
								"loop" : 0,
								"content_state" : 								{
									"slurtime" : [ 0 ],
									"timestretch" : [ 0 ],
									"formantcorrection" : [ 0 ],
									"formant" : [ 1 ],
									"originallengthms" : [ 0 ],
									"pitchshift" : [ 1 ],
									"mode" : [ "basic" ],
									"originallength" : [ 0, "ticks" ],
									"quality" : [ "basic" ],
									"speed" : [ 1 ],
									"originaltempo" : [ 120 ],
									"basictuning" : [ 440 ],
									"pitchcorrection" : [ 0 ],
									"followglobaltempo" : [ 0 ],
									"play" : [ 0 ],
									"pitchshiftcent" : [ 0 ]
								}

							}
, 							{
								"absolutepath" : "anton.aif",
								"filename" : "anton.aif",
								"filekind" : "audiofile",
								"id" : "u661000905",
								"loop" : 0,
								"content_state" : 								{
									"slurtime" : [ 0 ],
									"timestretch" : [ 0 ],
									"formantcorrection" : [ 0 ],
									"formant" : [ 1 ],
									"originallengthms" : [ 0 ],
									"pitchshift" : [ 1 ],
									"mode" : [ "basic" ],
									"originallength" : [ 0, "ticks" ],
									"quality" : [ "basic" ],
									"speed" : [ 1 ],
									"originaltempo" : [ 120 ],
									"basictuning" : [ 440 ],
									"pitchcorrection" : [ 0 ],
									"followglobaltempo" : [ 0 ],
									"play" : [ 0 ],
									"pitchshiftcent" : [ 0 ]
								}

							}
 ]
					}
,
					"followglobaltempo" : 0,
					"formantcorrection" : 0,
					"id" : "obj-9",
					"maxclass" : "playlist~",
					"mode" : "basic",
					"numinlets" : 1,
					"numoutlets" : 5,
					"originallength" : [ 0.0, "ticks" ],
					"originaltempo" : 120.0,
					"outlettype" : [ "signal", "signal", "signal", "", "dictionary" ],
					"parameter_enable" : 0,
					"patching_rect" : [ 132.0, 19.0, 350.0, 240.0 ],
					"pitchcorrection" : 0,
					"quality" : "basic",
					"timestretch" : [ 0 ]
				}

			}
, 			{
				"box" : 				{
					"id" : "obj-1",
					"maxclass" : "newobj",
					"numinlets" : 2,
					"numoutlets" : 2,
					"outlettype" : [ "signal", "signal" ],
					"patcher" : 					{
						"fileversion" : 1,
						"appversion" : 						{
							"major" : 8,
							"minor" : 5,
							"revision" : 0,
							"architecture" : "x64",
							"modernui" : 1
						}
,
						"classnamespace" : "dsp.gen",
						"rect" : [ 2065.0, 98.0, 739.0, 959.0 ],
						"bglocked" : 0,
						"openinpresentation" : 0,
						"default_fontsize" : 12.0,
						"default_fontface" : 0,
						"default_fontname" : "Arial",
						"gridonopen" : 1,
						"gridsize" : [ 15.0, 15.0 ],
						"gridsnaponopen" : 1,
						"objectsnaponopen" : 1,
						"statusbarvisible" : 2,
						"toolbarvisible" : 1,
						"lefttoolbarpinned" : 0,
						"toptoolbarpinned" : 0,
						"righttoolbarpinned" : 0,
						"bottomtoolbarpinned" : 0,
						"toolbars_unpinned_last_save" : 0,
						"tallnewobj" : 0,
						"boxanimatetime" : 200,
						"enablehscroll" : 1,
						"enablevscroll" : 1,
						"devicewidth" : 0.0,
						"description" : "",
						"digest" : "",
						"tags" : "",
						"style" : "",
						"subpatcher_template" : "",
						"assistshowspatchername" : 0,
						"boxes" : [ 							{
								"box" : 								{
									"id" : "obj-2",
									"maxclass" : "newobj",
									"numinlets" : 0,
									"numoutlets" : 1,
									"outlettype" : [ "" ],
									"patching_rect" : [ 658.0, 14.0, 28.0, 22.0 ],
									"text" : "in 2"
								}

							}
, 							{
								"box" : 								{
									"id" : "obj-6",
									"maxclass" : "newobj",
									"numinlets" : 1,
									"numoutlets" : 0,
									"patching_rect" : [ 658.0, 909.0, 35.0, 22.0 ],
									"text" : "out 2"
								}

							}
, 							{
								"box" : 								{
									"code" : "Param grainSize(100, min=10, max=500);\r\nParam grainPos(100, min=10, max=500);\r\nParam interval(100, min=10, max=500);\r\nParam width(50, min=0, max=100);\r\nParam pitch(0, min=-12, max=12);\r\nParam mix(50, min=0, max=100);\r\nParam gain(0, min=-36, max=12);\r\n\r\nDelay del_inL(5 * samplerate);\r\nDelay del_inR(5 * samplerate);\r\n\r\nData data_param(6, 100);\r\n\r\nHistory his_index(0);\r\nHistory his_mix(0), his_gain(0);\r\n\r\nhis_mix = (mix * 0.01 - his_mix) * 0.001 + his_mix;\r\nhis_gain = (dbtoa(gain) - his_gain) * 0.001 + his_gain;\r\n\r\nmaxVoice = 100;\r\n\r\ndel_inL.write(in1);\r\ndel_inR.write(in2);\r\n\r\nmCout = counter(1, 0, mstosamps(interval));\r\nif (mCout == 1) {\r\n\tif (peek(data_param, 0, his_index) == 0) {\r\n\t\tpoke(data_param, 1, 0, his_index);\r\n\t\tpoke(data_param, mstosamps(grainSize), 1, his_index);\r\n\t\tsizeScaled = mstosamps(grainSize);\r\n\t\twidthRand = noise()*0.5*width*0.01;\r\n\t\tpoke(data_param, 0.5 + widthRand, 3, his_index);\r\n\t\tpoke(data_param, 0.5 - widthRand, 4, his_index);\r\n\t\tpitchScaled = pow(2, pitch/12) - 1;\r\n\t\tpoke(data_param, pitchScaled, 5, his_index);\r\n\t\this_index = wrap(his_index + 1, 0, maxVoice);\r\n\t\tposScaled = mstosamps(grainPos)*abs(noise());\r\n\t\tpoke(data_param, posScaled + max(sizeScaled*pitchScaled, 0), 2, his_index);\r\n\t}\r\n}\r\n\r\noutL = 0;\r\noutR = 0;\r\ntotalWin = 0;\r\nfor (i = 0; i < maxVoice; i += 1) {\r\n\tpCout = peek(data_param, 0, i);\r\n\tif (pCout != 0) {\r\n\t\ts = peek(data_param, 1, i);\r\n\t\tif (pCout < s) {\r\n\t\t\tpCoutScaled = pCout / s;\r\n\t\t\twin = 0.5 * (sin (1.5 * PI + pCoutScaled * TWOPI) + 1);\r\n\t\t\toutputL = del_inL.read(peek(data_param, 2, i) - pCout * peek(data_param, 5, i)) * win;\r\n\t\t\toutputR = del_inR.read(peek(data_param, 2, i) - pCout * peek(data_param, 5, i)) * win;\r\n\t\t\toutL += outputL * peek(data_param, 3, i);\r\n\t\t\toutR += outputR * peek(data_param, 4, i);\r\n\t\t\tpoke(data_param, pCout + 1, 0, i);\r\n\t\t\ttotalWin += win;\r\n\t\t} else {\r\n\t\t\tpoke(data_param, 0, 0, i);\r\n\t\t}\r\n\t}\r\n}\r\n\r\nnormalise = pow(1 / max(totalWin, 1), 0.3) * his_gain;\r\nout1 = mix(in1, outL * normalise, his_mix);\r\nout2 = mix(in2, outR * normalise, his_mix);",
									"fontface" : 0,
									"fontname" : "<Monospaced>",
									"fontsize" : 12.0,
									"id" : "obj-5",
									"maxclass" : "codebox",
									"numinlets" : 2,
									"numoutlets" : 2,
									"outlettype" : [ "", "" ],
									"patching_rect" : [ 50.0, 79.0, 627.0, 773.0 ]
								}

							}
, 							{
								"box" : 								{
									"id" : "obj-1",
									"maxclass" : "newobj",
									"numinlets" : 0,
									"numoutlets" : 1,
									"outlettype" : [ "" ],
									"patching_rect" : [ 50.0, 14.0, 28.0, 22.0 ],
									"text" : "in 1"
								}

							}
, 							{
								"box" : 								{
									"id" : "obj-4",
									"maxclass" : "newobj",
									"numinlets" : 1,
									"numoutlets" : 0,
									"patching_rect" : [ 50.0, 909.0, 35.0, 22.0 ],
									"text" : "out 1"
								}

							}
 ],
						"lines" : [ 							{
								"patchline" : 								{
									"destination" : [ "obj-5", 0 ],
									"source" : [ "obj-1", 0 ]
								}

							}
, 							{
								"patchline" : 								{
									"destination" : [ "obj-5", 1 ],
									"source" : [ "obj-2", 0 ]
								}

							}
, 							{
								"patchline" : 								{
									"destination" : [ "obj-4", 0 ],
									"source" : [ "obj-5", 0 ]
								}

							}
, 							{
								"patchline" : 								{
									"destination" : [ "obj-6", 0 ],
									"source" : [ "obj-5", 1 ]
								}

							}
 ]
					}
,
					"patching_rect" : [ 132.0, 409.0, 48.0, 22.0 ],
					"saved_object_attributes" : 					{
						"exportname" : "gen_granular"
					}
,
					"text" : "gen~"
				}

			}
 ],
		"lines" : [ 			{
				"patchline" : 				{
					"destination" : [ "obj-3", 1 ],
					"source" : [ "obj-1", 1 ]
				}

			}
, 			{
				"patchline" : 				{
					"destination" : [ "obj-3", 0 ],
					"source" : [ "obj-1", 0 ]
				}

			}
, 			{
				"patchline" : 				{
					"destination" : [ "obj-1", 0 ],
					"source" : [ "obj-10", 0 ]
				}

			}
, 			{
				"patchline" : 				{
					"destination" : [ "obj-1", 0 ],
					"source" : [ "obj-12", 0 ]
				}

			}
, 			{
				"patchline" : 				{
					"destination" : [ "obj-1", 0 ],
					"source" : [ "obj-14", 0 ]
				}

			}
, 			{
				"patchline" : 				{
					"destination" : [ "obj-1", 0 ],
					"source" : [ "obj-15", 0 ]
				}

			}
, 			{
				"patchline" : 				{
					"destination" : [ "obj-1", 0 ],
					"source" : [ "obj-16", 0 ]
				}

			}
, 			{
				"patchline" : 				{
					"destination" : [ "obj-1", 0 ],
					"source" : [ "obj-19", 0 ]
				}

			}
, 			{
				"patchline" : 				{
					"destination" : [ "obj-5", 1 ],
					"midpoints" : [ 148.75, 690.0, 167.5, 690.0 ],
					"source" : [ "obj-3", 1 ]
				}

			}
, 			{
				"patchline" : 				{
					"destination" : [ "obj-5", 0 ],
					"source" : [ "obj-3", 0 ]
				}

			}
, 			{
				"patchline" : 				{
					"destination" : [ "obj-1", 0 ],
					"source" : [ "obj-4", 0 ]
				}

			}
, 			{
				"patchline" : 				{
					"destination" : [ "obj-1", 0 ],
					"source" : [ "obj-7", 0 ]
				}

			}
, 			{
				"patchline" : 				{
					"destination" : [ "obj-1", 1 ],
					"midpoints" : [ 224.25, 270.5, 170.5, 270.5 ],
					"source" : [ "obj-9", 1 ]
				}

			}
, 			{
				"patchline" : 				{
					"destination" : [ "obj-1", 0 ],
					"source" : [ "obj-9", 0 ]
				}

			}
 ],
		"parameters" : 		{
			"obj-3" : [ "live.gain~", "live.gain~", 0 ],
			"parameterbanks" : 			{
				"0" : 				{
					"index" : 0,
					"name" : "",
					"parameters" : [ "-", "-", "-", "-", "-", "-", "-", "-" ]
				}

			}
,
			"inherited_shortname" : 1
		}
,
		"dependency_cache" : [ 			{
				"name" : "anton.aif",
				"bootpath" : "C74:/media/msp",
				"type" : "AIFF",
				"implicit" : 1
			}
, 			{
				"name" : "cello-f2.aif",
				"bootpath" : "C74:/media/msp",
				"type" : "AIFF",
				"implicit" : 1
			}
, 			{
				"name" : "cherokee.aif",
				"bootpath" : "C74:/media/msp",
				"type" : "AIFF",
				"implicit" : 1
			}
, 			{
				"name" : "drumLoop.aif",
				"bootpath" : "C74:/media/msp",
				"type" : "AIFF",
				"implicit" : 1
			}
, 			{
				"name" : "jongly.aif",
				"bootpath" : "C74:/media/msp",
				"type" : "AIFF",
				"implicit" : 1
			}
, 			{
				"name" : "sho0630.aif",
				"bootpath" : "C74:/media/msp",
				"type" : "AIFF",
				"implicit" : 1
			}
, 			{
				"name" : "vibes-a1.aif",
				"bootpath" : "C74:/media/msp",
				"type" : "AIFF",
				"implicit" : 1
			}
 ],
		"autosave" : 0
	}

}
